# MagicaVoxel @ Ephtracy

# group
o 

# material
mtllib highrise_test-7.mtl
usemtl palette

# normals
vn -1 0 0
vn 1 0 0
vn 0 0 1
vn 0 0 -1
vn 0 -1 0
vn 0 1 0

# texcoords
vt 0.0800781 0.5
vt 0.0839844 0.5
vt 0.0878906 0.5
vt 0.0957031 0.5

# verts
v -2.4 3.2 2.8
v -2.4 3.2 1
v -2.4 3.3 2.8
v -2.4 3.3 1
v -2.4 3.5 2.8
v -2.4 3.5 1
v -2.4 3.8 2.8
v -2.4 3.8 1
v -2.4 3.9 2.7
v -2.4 3.9 1.1
v -2.4 4.1 2.8
v -2.4 4.1 2.7
v -2.4 4.1 1.1
v -2.4 4.1 1
v -2.4 4.2 2.7
v -2.4 4.2 1.1
v -2.1 3.5 2.8
v -2.1 3.5 1
v -2.1 3.8 2.8
v -2.1 3.8 2.6
v -2.1 3.8 2.5
v -2.1 3.8 2.3
v -2.1 3.8 2.2
v -2.1 3.8 2
v -2.1 3.8 1.9
v -2.1 3.8 1.7
v -2.1 3.8 1.6
v -2.1 3.8 1.4
v -2.1 3.8 1.3
v -2.1 3.8 1
v -2.1 3.9 2.8
v -2.1 3.9 2.7
v -2.1 3.9 2.6
v -2.1 3.9 2.5
v -2.1 3.9 2.3
v -2.1 3.9 2.2
v -2.1 3.9 2
v -2.1 3.9 1.9
v -2.1 3.9 1.7
v -2.1 3.9 1.6
v -2.1 3.9 1.4
v -2.1 3.9 1.3
v -2.1 3.9 1.1
v -2.1 3.9 1
v -2 3.9 2.8
v -2 3.9 2.7
v -2 3.9 1.1
v -2 3.9 1
v -2 4.1 2.8
v -2 4.1 2.7
v -2 4.1 1.1
v -2 4.1 1
v -1.9 3.9 2.7
v -1.9 3.9 1.1
v -1.9 4 1.8
v -1.9 4 1.1
v -1.9 4.1 1.8
v -1.9 4.1 1.1
v -1.9 4.2 2.7
v -1.9 4.2 1.1
v -1.8 3.2 2.8
v -1.8 3.2 1
v -1.8 3.3 2.8
v -1.8 3.3 1
v -1.8 3.4 2.8
v -1.8 3.4 1
v -1.8 3.5 2.8
v -1.8 3.5 1
v -1.8 4 1.8
v -1.8 4 1.1
v -1.8 4.1 1.8
v -1.8 4.1 1.1
v -2.4 3.2 2.8
v -2.4 3.3 2.8
v -2.4 3.5 2.8
v -2.4 3.8 2.8
v -2.4 4.1 2.8
v -2.1 3.4 2.8
v -2.1 3.5 2.8
v -2.1 3.8 2.8
v -2.1 3.9 2.8
v -2 3.9 2.8
v -2 4.1 2.8
v -1.8 3.2 2.8
v -1.8 3.3 2.8
v -1.8 3.4 2.8
v -1.8 3.5 2.8
v -2.4 4.1 2.7
v -2.4 4.2 2.7
v -2 3.9 2.7
v -2 4.1 2.7
v -1.9 3.9 2.7
v -1.9 4.2 2.7
v -1.9 4 1.8
v -1.9 4.1 1.8
v -1.8 4 1.8
v -1.8 4.1 1.8
v -2.4 4.1 1.1
v -2.4 4.2 1.1
v -2 3.9 1.1
v -2 4.1 1.1
v -1.9 3.9 1.1
v -1.9 4 1.1
v -1.9 4.1 1.1
v -1.9 4.2 1.1
v -1.8 4 1.1
v -1.8 4.1 1.1
v -2.4 3.2 1
v -2.4 3.3 1
v -2.4 3.5 1
v -2.4 3.8 1
v -2.4 4.1 1
v -2.1 3.4 1
v -2.1 3.5 1
v -2.1 3.8 1
v -2.1 3.9 1
v -2 3.9 1
v -2 4.1 1
v -1.8 3.2 1
v -1.8 3.3 1
v -1.8 3.4 1
v -1.8 3.5 1
v -2.4 3.2 2.8
v -1.8 3.2 2.8
v -2.4 3.2 1
v -1.8 3.2 1
v -2.1 3.9 2.8
v -2 3.9 2.8
v -2.1 3.9 2.7
v -2 3.9 2.7
v -1.9 3.9 2.7
v -2.1 3.9 2.6
v -2.1 3.9 2.5
v -2.1 3.9 2.3
v -2.1 3.9 2.2
v -2.1 3.9 2
v -2.1 3.9 1.9
v -2.1 3.9 1.7
v -2.1 3.9 1.6
v -2.1 3.9 1.4
v -2.1 3.9 1.3
v -2.1 3.9 1.1
v -2 3.9 1.1
v -1.9 3.9 1.1
v -2.1 3.9 1
v -2 3.9 1
v -1.9 4 1.8
v -1.8 4 1.8
v -1.9 4 1.1
v -1.8 4 1.1
v -2.1 3.5 2.8
v -1.8 3.5 2.8
v -2.1 3.5 1
v -1.8 3.5 1
v -2.4 4.1 2.8
v -2 4.1 2.8
v -2.4 4.1 2.7
v -2 4.1 2.7
v -1.9 4.1 1.8
v -1.8 4.1 1.8
v -2.4 4.1 1.1
v -2 4.1 1.1
v -1.9 4.1 1.1
v -1.8 4.1 1.1
v -2.4 4.1 1
v -2 4.1 1
v -2.4 4.2 2.7
v -1.9 4.2 2.7
v -2.4 4.2 1.1
v -1.9 4.2 1.1

# faces
f 3/1/1 2/1/1 1/1/1
f 4/1/1 2/1/1 3/1/1
f 5/3/1 4/3/1 3/3/1
f 6/3/1 4/3/1 5/3/1
f 7/2/1 6/2/1 5/2/1
f 8/2/1 6/2/1 7/2/1
f 9/3/1 8/3/1 7/3/1
f 10/3/1 8/3/1 9/3/1
f 11/3/1 9/3/1 7/3/1
f 12/4/1 10/4/1 9/4/1
f 12/3/1 9/3/1 11/3/1
f 13/3/1 8/3/1 10/3/1
f 13/4/1 10/4/1 12/4/1
f 14/3/1 8/3/1 13/3/1
f 15/4/1 13/4/1 12/4/1
f 16/4/1 13/4/1 15/4/1
f 17/2/2 18/2/2 19/2/2
f 19/2/2 18/2/2 20/2/2
f 20/2/2 18/2/2 21/2/2
f 21/2/2 18/2/2 22/2/2
f 22/2/2 18/2/2 23/2/2
f 23/2/2 18/2/2 24/2/2
f 24/2/2 18/2/2 25/2/2
f 25/2/2 18/2/2 26/2/2
f 26/2/2 18/2/2 27/2/2
f 27/2/2 18/2/2 28/2/2
f 28/2/2 18/2/2 29/2/2
f 29/2/2 18/2/2 30/2/2
f 19/3/2 20/3/2 31/3/2
f 31/3/2 20/3/2 32/3/2
f 20/4/2 21/4/2 33/4/2
f 32/3/2 20/3/2 33/3/2
f 21/3/2 22/3/2 34/3/2
f 33/4/2 21/4/2 34/4/2
f 22/4/2 23/4/2 35/4/2
f 34/3/2 22/3/2 35/3/2
f 23/3/2 24/3/2 36/3/2
f 35/4/2 23/4/2 36/4/2
f 24/4/2 25/4/2 37/4/2
f 36/3/2 24/3/2 37/3/2
f 25/3/2 26/3/2 38/3/2
f 37/4/2 25/4/2 38/4/2
f 26/4/2 27/4/2 39/4/2
f 38/3/2 26/3/2 39/3/2
f 27/3/2 28/3/2 40/3/2
f 39/4/2 27/4/2 40/4/2
f 28/4/2 29/4/2 41/4/2
f 40/3/2 28/3/2 41/3/2
f 29/3/2 30/3/2 42/3/2
f 41/4/2 29/4/2 42/4/2
f 42/3/2 30/3/2 43/3/2
f 43/3/2 30/3/2 44/3/2
f 45/3/2 46/3/2 49/3/2
f 49/3/2 46/3/2 50/3/2
f 47/3/2 48/3/2 51/3/2
f 51/3/2 48/3/2 52/3/2
f 53/4/2 54/4/2 55/4/2
f 55/4/2 54/4/2 56/4/2
f 53/4/2 55/4/2 57/4/2
f 53/4/2 57/4/2 59/4/2
f 57/4/2 58/4/2 59/4/2
f 59/4/2 58/4/2 60/4/2
f 61/1/2 62/1/2 63/1/2
f 63/1/2 62/1/2 64/1/2
f 63/3/2 64/3/2 65/3/2
f 65/3/2 64/3/2 66/3/2
f 65/4/2 66/4/2 67/4/2
f 67/4/2 66/4/2 68/4/2
f 69/4/2 70/4/2 71/4/2
f 71/4/2 70/4/2 72/4/2
f 78/3/3 75/3/3 74/3/3
f 79/2/3 76/2/3 75/2/3
f 79/3/3 75/3/3 78/3/3
f 80/3/3 77/3/3 76/3/3
f 80/2/3 76/2/3 79/2/3
f 81/3/3 77/3/3 80/3/3
f 82/3/3 77/3/3 81/3/3
f 83/3/3 77/3/3 82/3/3
f 84/1/3 74/1/3 73/1/3
f 85/3/3 78/3/3 74/3/3
f 85/1/3 74/1/3 84/1/3
f 86/4/3 79/4/3 78/4/3
f 86/3/3 78/3/3 85/3/3
f 87/4/3 79/4/3 86/4/3
f 91/4/3 89/4/3 88/4/3
f 92/4/3 91/4/3 90/4/3
f 93/4/3 89/4/3 91/4/3
f 93/4/3 91/4/3 92/4/3
f 96/4/3 95/4/3 94/4/3
f 97/4/3 95/4/3 96/4/3
f 98/4/4 99/4/4 101/4/4
f 100/4/4 101/4/4 102/4/4
f 102/4/4 101/4/4 103/4/4
f 101/4/4 99/4/4 104/4/4
f 103/4/4 101/4/4 104/4/4
f 104/4/4 99/4/4 105/4/4
f 103/4/4 104/4/4 106/4/4
f 106/4/4 104/4/4 107/4/4
f 109/3/4 110/3/4 113/3/4
f 110/2/4 111/2/4 114/2/4
f 113/3/4 110/3/4 114/3/4
f 111/3/4 112/3/4 115/3/4
f 114/2/4 111/2/4 115/2/4
f 115/3/4 112/3/4 116/3/4
f 116/3/4 112/3/4 117/3/4
f 117/3/4 112/3/4 118/3/4
f 108/1/4 109/1/4 119/1/4
f 109/3/4 113/3/4 120/3/4
f 119/1/4 109/1/4 120/1/4
f 113/4/4 114/4/4 121/4/4
f 120/3/4 113/3/4 121/3/4
f 121/4/4 114/4/4 122/4/4
f 125/1/5 124/1/5 123/1/5
f 126/1/5 124/1/5 125/1/5
f 129/3/5 128/3/5 127/3/5
f 130/3/5 128/3/5 129/3/5
f 132/4/5 130/4/5 129/4/5
f 132/4/5 131/4/5 130/4/5
f 133/4/5 131/4/5 132/4/5
f 134/4/5 131/4/5 133/4/5
f 135/4/5 131/4/5 134/4/5
f 136/4/5 131/4/5 135/4/5
f 137/4/5 131/4/5 136/4/5
f 138/4/5 131/4/5 137/4/5
f 139/4/5 131/4/5 138/4/5
f 140/4/5 131/4/5 139/4/5
f 141/4/5 131/4/5 140/4/5
f 142/4/5 131/4/5 141/4/5
f 143/4/5 131/4/5 142/4/5
f 144/4/5 131/4/5 143/4/5
f 145/3/5 143/3/5 142/3/5
f 146/3/5 143/3/5 145/3/5
f 149/4/5 148/4/5 147/4/5
f 150/4/5 148/4/5 149/4/5
f 151/4/6 152/4/6 153/4/6
f 153/4/6 152/4/6 154/4/6
f 155/3/6 156/3/6 157/3/6
f 157/3/6 156/3/6 158/3/6
f 159/4/6 160/4/6 163/4/6
f 163/4/6 160/4/6 164/4/6
f 161/3/6 162/3/6 165/3/6
f 165/3/6 162/3/6 166/3/6
f 167/4/6 168/4/6 169/4/6
f 169/4/6 168/4/6 170/4/6
