# MagicaVoxel @ Ephtracy

# group
o 

# material
mtllib highrise_test-1.mtl
usemtl palette

# normals
vn -1 0 0
vn 1 0 0
vn 0 0 1
vn 0 0 -1
vn 0 -1 0
vn 0 1 0

# texcoords
vt 0.0800781 0.5
vt 0.0839844 0.5

# verts
v -3.1 1.6 9.6
v -3.1 1.6 6.4
v -3.1 8 9.6
v -3.1 8 6.4
v -1.6 1.6 9.6
v -1.6 1.6 6.4
v -1.6 1.7 9.5
v -1.6 1.7 6.5
v -1.6 3.1 9.5
v -1.6 3.1 6.5
v -1.6 3.3 9.5
v -1.6 3.3 6.5
v -1.6 4.7 9.5
v -1.6 4.7 6.5
v -1.6 4.9 9.5
v -1.6 4.9 6.5
v -1.6 6.3 9.5
v -1.6 6.3 6.5
v -1.6 6.5 9.5
v -1.6 6.5 6.5
v -1.6 7.9 9.5
v -1.6 7.9 6.5
v -1.6 8 9.6
v -1.6 8 6.4
v -1.5 1.7 9.5
v -1.5 1.7 6.5
v -1.5 1.8 9.4
v -1.5 1.8 9.3
v -1.5 1.8 6.7
v -1.5 1.8 6.6
v -1.5 1.9 9.4
v -1.5 1.9 9.3
v -1.5 1.9 6.7
v -1.5 1.9 6.6
v -1.5 2.9 9.4
v -1.5 2.9 9.3
v -1.5 2.9 6.7
v -1.5 2.9 6.6
v -1.5 3 9.4
v -1.5 3 9.3
v -1.5 3 6.7
v -1.5 3 6.6
v -1.5 3.1 9.5
v -1.5 3.1 6.5
v -1.5 3.3 9.5
v -1.5 3.3 6.5
v -1.5 3.4 9.4
v -1.5 3.4 9.3
v -1.5 3.4 6.7
v -1.5 3.4 6.6
v -1.5 3.5 9.4
v -1.5 3.5 9.3
v -1.5 3.5 6.7
v -1.5 3.5 6.6
v -1.5 4.5 9.4
v -1.5 4.5 9.3
v -1.5 4.5 6.7
v -1.5 4.5 6.6
v -1.5 4.6 9.4
v -1.5 4.6 9.3
v -1.5 4.6 6.7
v -1.5 4.6 6.6
v -1.5 4.7 9.5
v -1.5 4.7 6.5
v -1.5 4.9 9.5
v -1.5 4.9 6.5
v -1.5 5 9.4
v -1.5 5 9.3
v -1.5 5 6.7
v -1.5 5 6.6
v -1.5 5.1 9.4
v -1.5 5.1 9.3
v -1.5 5.1 6.7
v -1.5 5.1 6.6
v -1.5 6.1 9.4
v -1.5 6.1 9.3
v -1.5 6.1 6.7
v -1.5 6.1 6.6
v -1.5 6.2 9.4
v -1.5 6.2 9.3
v -1.5 6.2 6.7
v -1.5 6.2 6.6
v -1.5 6.3 9.5
v -1.5 6.3 6.5
v -1.5 6.5 9.5
v -1.5 6.5 6.5
v -1.5 6.6 9.4
v -1.5 6.6 9.3
v -1.5 6.6 6.7
v -1.5 6.6 6.6
v -1.5 6.7 9.4
v -1.5 6.7 9.3
v -1.5 6.7 6.7
v -1.5 6.7 6.6
v -1.5 7.7 9.4
v -1.5 7.7 9.3
v -1.5 7.7 6.7
v -1.5 7.7 6.6
v -1.5 7.8 9.4
v -1.5 7.8 9.3
v -1.5 7.8 6.7
v -1.5 7.8 6.6
v -1.5 7.9 9.5
v -1.5 7.9 6.5
v -3.1 1.6 9.6
v -3.1 8 9.6
v -1.6 1.6 9.6
v -1.6 8 9.6
v -1.6 1.7 9.5
v -1.6 3.1 9.5
v -1.6 3.3 9.5
v -1.6 4.7 9.5
v -1.6 4.9 9.5
v -1.6 6.3 9.5
v -1.6 6.5 9.5
v -1.6 7.9 9.5
v -1.5 1.7 9.5
v -1.5 3.1 9.5
v -1.5 3.3 9.5
v -1.5 4.7 9.5
v -1.5 4.9 9.5
v -1.5 6.3 9.5
v -1.5 6.5 9.5
v -1.5 7.9 9.5
v -1.6 1.7 6.5
v -1.6 3.1 6.5
v -1.6 3.3 6.5
v -1.6 4.7 6.5
v -1.6 4.9 6.5
v -1.6 6.3 6.5
v -1.6 6.5 6.5
v -1.6 7.9 6.5
v -1.5 1.7 6.5
v -1.5 3.1 6.5
v -1.5 3.3 6.5
v -1.5 4.7 6.5
v -1.5 4.9 6.5
v -1.5 6.3 6.5
v -1.5 6.5 6.5
v -1.5 7.9 6.5
v -3.1 1.6 6.4
v -3.1 8 6.4
v -1.6 1.6 6.4
v -1.6 8 6.4
v -3.1 1.6 9.6
v -1.6 1.6 9.6
v -3.1 1.6 6.4
v -1.6 1.6 6.4
v -1.6 1.7 9.5
v -1.5 1.7 9.5
v -1.6 1.7 6.5
v -1.5 1.7 6.5
v -1.6 3.3 9.5
v -1.5 3.3 9.5
v -1.6 3.3 6.5
v -1.5 3.3 6.5
v -1.6 4.9 9.5
v -1.5 4.9 9.5
v -1.6 4.9 6.5
v -1.5 4.9 6.5
v -1.6 6.5 9.5
v -1.5 6.5 9.5
v -1.6 6.5 6.5
v -1.5 6.5 6.5
v -1.6 3.1 9.5
v -1.5 3.1 9.5
v -1.6 3.1 6.5
v -1.5 3.1 6.5
v -1.6 4.7 9.5
v -1.5 4.7 9.5
v -1.6 4.7 6.5
v -1.5 4.7 6.5
v -1.6 6.3 9.5
v -1.5 6.3 9.5
v -1.6 6.3 6.5
v -1.5 6.3 6.5
v -1.6 7.9 9.5
v -1.5 7.9 9.5
v -1.6 7.9 6.5
v -1.5 7.9 6.5
v -3.1 8 9.6
v -1.6 8 9.6
v -3.1 8 6.4
v -1.6 8 6.4

# faces
f 3/2/1 2/2/1 1/2/1
f 4/2/1 2/2/1 3/2/1
f 5/2/2 6/2/2 7/2/2
f 7/2/2 6/2/2 8/2/2
f 5/2/2 7/2/2 9/2/2
f 8/2/2 6/2/2 10/2/2
f 5/2/2 9/2/2 11/2/2
f 9/2/2 10/2/2 11/2/2
f 10/2/2 6/2/2 12/2/2
f 11/2/2 10/2/2 12/2/2
f 5/2/2 11/2/2 13/2/2
f 12/2/2 6/2/2 14/2/2
f 5/2/2 13/2/2 15/2/2
f 13/2/2 14/2/2 15/2/2
f 14/2/2 6/2/2 16/2/2
f 15/2/2 14/2/2 16/2/2
f 5/2/2 15/2/2 17/2/2
f 16/2/2 6/2/2 18/2/2
f 5/2/2 17/2/2 19/2/2
f 17/2/2 18/2/2 19/2/2
f 18/2/2 6/2/2 20/2/2
f 19/2/2 18/2/2 20/2/2
f 5/2/2 19/2/2 21/2/2
f 20/2/2 6/2/2 22/2/2
f 5/2/2 21/2/2 23/2/2
f 21/2/2 22/2/2 23/2/2
f 22/2/2 6/2/2 24/2/2
f 23/2/2 22/2/2 24/2/2
f 25/2/2 26/2/2 27/2/2
f 27/2/2 26/2/2 28/2/2
f 28/2/2 26/2/2 29/2/2
f 29/2/2 26/2/2 30/2/2
f 25/2/2 27/2/2 31/2/2
f 27/1/2 28/1/2 31/1/2
f 28/2/2 29/2/2 32/2/2
f 31/1/2 28/1/2 32/1/2
f 29/1/2 30/1/2 33/1/2
f 32/2/2 29/2/2 33/2/2
f 30/2/2 26/2/2 34/2/2
f 33/1/2 30/1/2 34/1/2
f 32/2/2 33/2/2 35/2/2
f 31/2/2 32/2/2 35/2/2
f 33/2/2 34/2/2 35/2/2
f 25/2/2 31/2/2 35/2/2
f 35/2/2 34/2/2 36/2/2
f 36/2/2 34/2/2 37/2/2
f 34/2/2 26/2/2 38/2/2
f 37/2/2 34/2/2 38/2/2
f 25/2/2 35/2/2 39/2/2
f 35/1/2 36/1/2 39/1/2
f 36/2/2 37/2/2 40/2/2
f 39/1/2 36/1/2 40/1/2
f 37/1/2 38/1/2 41/1/2
f 40/2/2 37/2/2 41/2/2
f 38/2/2 26/2/2 42/2/2
f 41/1/2 38/1/2 42/1/2
f 25/2/2 39/2/2 43/2/2
f 40/2/2 41/2/2 43/2/2
f 41/2/2 42/2/2 43/2/2
f 39/2/2 40/2/2 43/2/2
f 42/2/2 26/2/2 44/2/2
f 43/2/2 42/2/2 44/2/2
f 45/2/2 46/2/2 47/2/2
f 47/2/2 46/2/2 48/2/2
f 48/2/2 46/2/2 49/2/2
f 49/2/2 46/2/2 50/2/2
f 45/2/2 47/2/2 51/2/2
f 47/1/2 48/1/2 51/1/2
f 48/2/2 49/2/2 52/2/2
f 51/1/2 48/1/2 52/1/2
f 49/1/2 50/1/2 53/1/2
f 52/2/2 49/2/2 53/2/2
f 50/2/2 46/2/2 54/2/2
f 53/1/2 50/1/2 54/1/2
f 52/2/2 53/2/2 55/2/2
f 51/2/2 52/2/2 55/2/2
f 53/2/2 54/2/2 55/2/2
f 45/2/2 51/2/2 55/2/2
f 55/2/2 54/2/2 56/2/2
f 56/2/2 54/2/2 57/2/2
f 54/2/2 46/2/2 58/2/2
f 57/2/2 54/2/2 58/2/2
f 45/2/2 55/2/2 59/2/2
f 55/1/2 56/1/2 59/1/2
f 56/2/2 57/2/2 60/2/2
f 59/1/2 56/1/2 60/1/2
f 57/1/2 58/1/2 61/1/2
f 60/2/2 57/2/2 61/2/2
f 58/2/2 46/2/2 62/2/2
f 61/1/2 58/1/2 62/1/2
f 45/2/2 59/2/2 63/2/2
f 60/2/2 61/2/2 63/2/2
f 61/2/2 62/2/2 63/2/2
f 59/2/2 60/2/2 63/2/2
f 62/2/2 46/2/2 64/2/2
f 63/2/2 62/2/2 64/2/2
f 65/2/2 66/2/2 67/2/2
f 67/2/2 66/2/2 68/2/2
f 68/2/2 66/2/2 69/2/2
f 69/2/2 66/2/2 70/2/2
f 65/2/2 67/2/2 71/2/2
f 67/1/2 68/1/2 71/1/2
f 68/2/2 69/2/2 72/2/2
f 71/1/2 68/1/2 72/1/2
f 69/1/2 70/1/2 73/1/2
f 72/2/2 69/2/2 73/2/2
f 70/2/2 66/2/2 74/2/2
f 73/1/2 70/1/2 74/1/2
f 72/2/2 73/2/2 75/2/2
f 71/2/2 72/2/2 75/2/2
f 73/2/2 74/2/2 75/2/2
f 65/2/2 71/2/2 75/2/2
f 75/2/2 74/2/2 76/2/2
f 76/2/2 74/2/2 77/2/2
f 74/2/2 66/2/2 78/2/2
f 77/2/2 74/2/2 78/2/2
f 65/2/2 75/2/2 79/2/2
f 75/1/2 76/1/2 79/1/2
f 76/2/2 77/2/2 80/2/2
f 79/1/2 76/1/2 80/1/2
f 77/1/2 78/1/2 81/1/2
f 80/2/2 77/2/2 81/2/2
f 78/2/2 66/2/2 82/2/2
f 81/1/2 78/1/2 82/1/2
f 65/2/2 79/2/2 83/2/2
f 80/2/2 81/2/2 83/2/2
f 81/2/2 82/2/2 83/2/2
f 79/2/2 80/2/2 83/2/2
f 82/2/2 66/2/2 84/2/2
f 83/2/2 82/2/2 84/2/2
f 85/2/2 86/2/2 87/2/2
f 87/2/2 86/2/2 88/2/2
f 88/2/2 86/2/2 89/2/2
f 89/2/2 86/2/2 90/2/2
f 85/2/2 87/2/2 91/2/2
f 87/1/2 88/1/2 91/1/2
f 88/2/2 89/2/2 92/2/2
f 91/1/2 88/1/2 92/1/2
f 89/1/2 90/1/2 93/1/2
f 92/2/2 89/2/2 93/2/2
f 90/2/2 86/2/2 94/2/2
f 93/1/2 90/1/2 94/1/2
f 92/2/2 93/2/2 95/2/2
f 91/2/2 92/2/2 95/2/2
f 93/2/2 94/2/2 95/2/2
f 85/2/2 91/2/2 95/2/2
f 95/2/2 94/2/2 96/2/2
f 96/2/2 94/2/2 97/2/2
f 94/2/2 86/2/2 98/2/2
f 97/2/2 94/2/2 98/2/2
f 85/2/2 95/2/2 99/2/2
f 95/1/2 96/1/2 99/1/2
f 96/2/2 97/2/2 100/2/2
f 99/1/2 96/1/2 100/1/2
f 97/1/2 98/1/2 101/1/2
f 100/2/2 97/2/2 101/2/2
f 98/2/2 86/2/2 102/2/2
f 101/1/2 98/1/2 102/1/2
f 85/2/2 99/2/2 103/2/2
f 100/2/2 101/2/2 103/2/2
f 101/2/2 102/2/2 103/2/2
f 99/2/2 100/2/2 103/2/2
f 102/2/2 86/2/2 104/2/2
f 103/2/2 102/2/2 104/2/2
f 107/2/3 106/2/3 105/2/3
f 108/2/3 106/2/3 107/2/3
f 117/2/3 110/2/3 109/2/3
f 118/2/3 110/2/3 117/2/3
f 119/2/3 112/2/3 111/2/3
f 120/2/3 112/2/3 119/2/3
f 121/2/3 114/2/3 113/2/3
f 122/2/3 114/2/3 121/2/3
f 123/2/3 116/2/3 115/2/3
f 124/2/3 116/2/3 123/2/3
f 125/2/4 126/2/4 133/2/4
f 133/2/4 126/2/4 134/2/4
f 127/2/4 128/2/4 135/2/4
f 135/2/4 128/2/4 136/2/4
f 129/2/4 130/2/4 137/2/4
f 137/2/4 130/2/4 138/2/4
f 131/2/4 132/2/4 139/2/4
f 139/2/4 132/2/4 140/2/4
f 141/2/4 142/2/4 143/2/4
f 143/2/4 142/2/4 144/2/4
f 147/2/5 146/2/5 145/2/5
f 148/2/5 146/2/5 147/2/5
f 151/2/5 150/2/5 149/2/5
f 152/2/5 150/2/5 151/2/5
f 155/2/5 154/2/5 153/2/5
f 156/2/5 154/2/5 155/2/5
f 159/2/5 158/2/5 157/2/5
f 160/2/5 158/2/5 159/2/5
f 163/2/5 162/2/5 161/2/5
f 164/2/5 162/2/5 163/2/5
f 165/2/6 166/2/6 167/2/6
f 167/2/6 166/2/6 168/2/6
f 169/2/6 170/2/6 171/2/6
f 171/2/6 170/2/6 172/2/6
f 173/2/6 174/2/6 175/2/6
f 175/2/6 174/2/6 176/2/6
f 177/2/6 178/2/6 179/2/6
f 179/2/6 178/2/6 180/2/6
f 181/2/6 182/2/6 183/2/6
f 183/2/6 182/2/6 184/2/6
